<mxfile host="app.diagrams.net" agent="Mozilla/5.0 (Windows NT 10.0; Win64; x64) AppleWebKit/537.36 (KHTML, like Gecko) Chrome/138.0.0.0 Safari/537.36" version="27.1.6">
  <diagram name="第 1 页" id="PC0jZNxyTleNxQxzHEzb">
    <mxGraphModel dx="672" dy="347" grid="1" gridSize="10" guides="1" tooltips="1" connect="1" arrows="1" fold="1" page="1" pageScale="1" pageWidth="1169" pageHeight="827" math="0" shadow="0">
      <root>
        <mxCell id="0" />
        <mxCell id="1" parent="0" />
        <mxCell id="Jis6cY73mUHlKtGD7zfd-57" value="" style="text;html=1;align=center;verticalAlign=middle;whiteSpace=wrap;rounded=1;fontFamily=Comic Sans MS;fillColor=#ffe6cc;strokeColor=#d79b00;sketch=1;curveFitting=1;jiggle=2;opacity=20;fontStyle=0;fontSize=13;" vertex="1" parent="1">
          <mxGeometry x="210" y="280" width="350" height="220" as="geometry" />
        </mxCell>
        <mxCell id="Jis6cY73mUHlKtGD7zfd-27" value="" style="endArrow=classic;html=1;rounded=0;strokeWidth=7;fillColor=#ffe6cc;strokeColor=#d79b00;sketch=1;curveFitting=1;jiggle=2;opacity=70;fontColor=light-dark(#d9b96d, #ededed);textShadow=1;" edge="1" parent="1">
          <mxGeometry width="50" height="50" relative="1" as="geometry">
            <mxPoint x="220" y="355" as="sourcePoint" />
            <mxPoint x="560" y="355" as="targetPoint" />
          </mxGeometry>
        </mxCell>
        <mxCell id="Jis6cY73mUHlKtGD7zfd-17" value="" style="shape=image;verticalLabelPosition=bottom;labelBackgroundColor=default;verticalAlign=top;aspect=fixed;imageAspect=0;editableCssRules=.*;image=data:image/svg+xml,PHN2ZyB4bWxuczp4bGluaz0iaHR0cDovL3d3dy53My5vcmcvMTk5OS94bGluayIgeG1sbnM9Imh0dHA6Ly93d3cudzMub3JnLzIwMDAvc3ZnIiBoZWlnaHQ9IjE4NC43OTg0MzEzOTY0ODQzOCIgd2lkdGg9IjIwMC4wMDAzODE0Njk3MjY1NiIgdmVyc2lvbj0iMS4xIiB2aWV3Qm94PSIwIDM4LjkxNjAwMDM2NjIxMDk0IDEwMjQuMDAxOTUzMTI1IDk0Ni4xNjc5Njg3NSIgY2xhc3M9Imljb24iPjxwYXRoIGZpbGw9IiM0QTU1NUYiIGQ9Ik04ODMuOTUgNTc0LjIxNnYzOTUuOTc4SDE0Ljg5MlYzMzkuODg2bDUzLjc4LTc1LjY5aDIzNy4zNzRsNTcuNDMyIDgwLjc2aDI3Ni4yM3YtMTQuODkySDM3MS4xNjJsLTU3LjQzNC04MC43Nkg2MC45ODRMMCAzMzUuMTM0djY0OS45NWg4OTguODQyVjU3NC4yMTZ6Ii8+PHBhdGggZmlsbD0iI0ZGRDQ1MiIgZD0iTTg2My4zIDU1Mi4zNDRjLTMyLjQ2NC00My41ODItNDUuNzE2LTUxLjA3OC01MC4zODItNTEuNjI0LTUuMDE0IDAuNTQ2LTE4LjI2NiA3Ljk5Mi01MC43MyA1MS42MjRsLTEwLjg3IDE0LjY5Mi0xNy4yMjQtNi4wNTZhMjQxLjA3OCAyNDEuMDc4IDAgMCAxLTI3LjU5OC0xMS42NjRsLTE1LjkzNC04LjA0MiAyLjczLTE5LjE2YzcuMTk4LTQ5Ljk4NiA0LjM2OC02NS45NjggMS4wOTItNzAuMjM4LTAuMDUtMC4wNS01LjExMi0zLjcyNC0yNC43Mi0zLjcyNC0xNC4zNDYgMC0zMC40NzggMS45ODYtNDIuMjkyIDMuNDI2bC0yMS42OTIgMi41ODItNy42NDQtMTYuMDgyYy00LjcxNi05Ljg3OC04LjQ4OC0xOS40NTgtMTEuNTY2LTI5LjI4NmwtNS4xMTItMTYuMjMyIDEzLjM1Mi0xMC41NzJjMS44MzYtMS40OSAzLjg3Mi0zLjA3OCA2LjA1Ni00Ljc2NiAzLjk3LTMuMTI4IDEwLjk3LTguNjM4IDE4LjI2Ni0xNC44OTJoLTI2NC41MmwtNTcuNDMtODAuNzZINzcuNjMybC00NS4zNjggNjMuODg0djYwNy4zNjhoODM0LjMxMnYtMzk2LjA2bC0zLjI3Ni00LjQxOHpNNDM0LjUxMiA4NzguOTFIODcuNjQ0VjU1Ni41MTRoMzQ2Ljg2OHYzMjIuMzk2eiBtMzgwLjg5NiAwaC0zNDYuODJ2LTIzMS40NmgzNDYuODJ2MjMxLjQ2eiIvPjxwYXRoIGZpbGw9IiM0QTU1NUYiIGQ9Ik0xMDIwLjAwNCAzOTUuNTgyYTEyNDUuNTgyIDEyNDUuNTgyIDAgMCAwLTYuMDY2LTQuNzgyYy0xNy44MTYtMTMuOTcyLTUwLjk4LTM5Ljk4Ni01MC45OC01Ny42NDIgMC0xNi4xMiAyOS4xNjQtNDAuMyA0Ni41ODgtNTQuNzQ4YTcyMi43NyA3MjIuNzcgMCAwIDAgOC4zNDQtNi45ODRsMy44NzQtMy4zMTYtMS42OTItNC44MDhjLTMuMjktOS4zNjYtNy41MTItMTguOTM4LTEyLjU1LTI4LjQ1NGwtMi4yNjItNC4yNzYtNC44MjYgMC4zM2MtNC4xNiAwLjI4NC04Ljk0OCAwLjc0NC0xNC4xMTYgMS4yNDItMTAuOTEyIDEuMDUyLTIzLjI4IDIuMjQ0LTM0Ljg2MiAyLjI0NC0xNi42NjYgMC0yNy42MTQtMi41MTQtMzIuNTU2LTcuNDktMTAuMTItMTAuMTIyLTcuNDE2LTQzLjIyMi01LjYyOC02NS4xMjYgMC40NDgtNS41MDQgMC44Ni0xMC41ODQgMS4wNzItMTQuOTIybDAuMjM4LTQuODc4LTQuMzgtMi4xNmEyMzUuODg2IDIzNS44ODYgMCAwIDAtMzAuMzM0LTEyLjM3NmwtNC41OC0xLjUwOC0zLjI1IDMuNTYyYy0zLjExMiAzLjQxMi02LjY0NCA3LjYtMTAuNDcyIDEyLjE0Ni0xMy44NjYgMTYuNDUyLTM0LjgyMiA0MS4zMTQtNDguODE4IDQxLjMxNC0xNC4xMDQgMC0zNS4wOTgtMjQuODk4LTQ4Ljk5LTQxLjM3Ni0zLjgxMi00LjUyLTcuMzMtOC42ODYtMTAuNDI2LTEyLjA4NGwtMy4yNS0zLjU2Mi00LjU4IDEuNTA4YTIzNS4xMDQgMjM1LjEwNCAwIDAgMC0zMC4zMzQgMTIuMzc2bC00LjM4MiAyLjE2IDAuMjM4IDQuODc4YzAuMjEgNC4zNDYgMC42MjYgOS40MzQgMS4wNzYgMTQuOTQ4IDEuNzk2IDIxLjkxIDQuNTA2IDU1LjAyLTUuNjEgNjUuMjEtNC45NCA0LjkzOC0xNS45IDcuNDQtMzIuNTc4IDcuNDQtMTEuODUyIDAtMjQuNDU2LTEuMjQtMzUuNTc2LTIuMzM2LTQuODM2LTAuNDc4LTkuMzE2LTAuOTE4LTEzLjIyOC0xLjIwOGwtNC44NS0wLjM1Ni0yLjI3OCA0LjI5OGMtNS4wMzYgOS41MTQtOS4yNjIgMTkuMDg2LTEyLjU1MiAyOC40NThsLTEuNjkyIDQuODA4IDMuODc0IDMuMzE2YzIuNDgyIDIuMTI0IDUuMzA4IDQuNDY2IDguMzQ0IDYuOTg0IDE3LjQyNCAxNC40NDggNDYuNTg4IDM4LjYyNiA0Ni41ODggNTQuNzQ4IDAgMTcuNjU2LTMzLjE2OCA0My42Ny01MC45ODggNTcuNjQ4LTIuMTU0IDEuNjktNC4xOSAzLjI4NC02LjA2IDQuNzc0bC00IDMuMTgyIDEuNTMyIDQuODc0YzIuODQ0IDkuMDQ2IDYuMzQgMTcuODc2IDEwLjY4OCAyNi45OTZsMi4zMDIgNC44MjIgOS4xMDYtMS4wOThjMTIuMjc2LTEuNDk4IDI5LjA4Ni0zLjU0NiA0NC41NjQtMy41NDYgMjMuMjk2IDAgMzIuODcgNC42ODIgMzYuOCA4LjYwOCAxNC4xMTggMTQuMTE4IDcuMzQ2IDYxLjg2NCA0LjA5MiA4NC44MDhsLTEuMDA4IDcuMTI0IDQuNzQ2IDIuNDEyYTIwNi45MiAyMDYuOTIgMCAwIDAgMjUuNTI0IDEwLjgyNGw1LjE2NiAxLjggMy4yNjItNC4zOTRjMTMuMDI4LTE3LjU0MiA0My41MzgtNTguNjMgNjQuNDgtNTguNjMgMjAuOTQ2IDAgNTEuNDU2IDQxLjA4NiA2NC40ODQgNTguNjNsMy4yNiA0LjM5NCA1LjE2OC0xLjhhMjA3LjU2NiAyMDcuNTY2IDAgMCAwIDI1LjUyNC0xMC44MjRsNC43NzItMi40MjItMC45LTYuMTQ0Yy0zLjM5OC0yMy4xOTgtMTAuNDY4LTcxLjQ2NiAzLjg0Ni04NS43NzggMy45MjgtMy45MjYgMTMuNTAyLTguNjA4IDM2LjgwNi04LjYwOCAxNS40NDIgMCAzMi4yNjIgMi4wNCA0NC41NDYgMy41MzRsOS4yMyAxLjEwOCAyLjMtNC44MjRjNC4zNS05LjEyNCA3Ljg0Ni0xNy45NTQgMTAuNjg2LTI2Ljk5MmwxLjUzMi00Ljg3NC0zLjk5OC0zLjE4MnogbS0xOS40MyAyMy44MDRjLTEyLjUxMi0xLjUxOC0yOS4xNS0zLjQ2NC00NC44NjgtMy40NjQtMjMuMTI0IDAtMzguNjA4IDQuMjQyLTQ3LjMzNiAxMi45NzItMTcuMzc0IDE3LjM3LTEzLjk1NiA1Ny4wMTItOC43MDYgOTMuOTI4YTE5Mi42MzIgMTkyLjYzMiAwIDAgMS0xMy44MDYgNS44NDhjLTIzLjk1Ni0zMS44Mi00OS4yMjgtNjAuMTk2LTczLjExNC02MC4xOTYtMjMuODg0IDAtNDkuMTU2IDI4LjM3NC03My4xMTIgNjAuMTk2YTE5Mi45MTQgMTkyLjkxNCAwIDAgMS0xMy44Mi01Ljg1NGM0LjE0Ni0yOS40NTggOS44MjItNzUuMzA2LTguOC05My45MjQtOC43MjgtOC43My0yNC4yMS0xMi45NzItNDcuMzI4LTEyLjk3Mi0xNS43MDQgMC0zMi4yNzYgMS45NDItNDQuNzY4IDMuNDYyYTE4OC41NTQgMTg4LjU1NCAwIDAgMS02LjA4Ni0xNS4zNjJsMS45MS0xLjQ5OGMyMy45MjItMTguNzY0IDU2LjY4OC00NC40NiA1Ni42ODgtNjkuMzY0IDAtMjMuMTE4LTMwLjA0LTQ4LjAyNC01MS45NzYtNjYuMjEyYTE0ODguNDYgMTQ4OC40NiAwIDAgMS00LjIxNC0zLjUwMiAxOTUuMDAyIDE5NS4wMDIgMCAwIDEgNy42NTgtMTcuMjgyYzIuNTA2IDAuMjI4IDUuMTggMC40OTIgNy45NzQgMC43NjYgMTEuNDYyIDEuMTMgMjQuNDUyIDIuNDEgMzcuMDM2IDIuNDEgMjEuMzU4IDAgMzUuMDU0LTMuNzUgNDMuMTI2LTExLjgyMiAxNC45NzItMTUuMDc2IDEyLjE2Mi00OS4zNzYgOS45MDYtNzYuOTM0LTAuMjc2LTMuMzcyLTAuNTQtNi41NzgtMC43NDYtOS41NDJhMjIxLjM2NiAyMjEuMzY2IDAgMCAxIDE5LjM1NC03Ljg4OGMyLjEzIDIuNDU0IDQuNDE0IDUuMTY2IDYuODI2IDguMDIyIDE3LjUzIDIwLjc5IDM5LjM1IDQ2LjY2NiA2MC4zNzYgNDYuNjY2IDIwLjkyMiAwIDQyLjcwNC0yNS44NDQgNjAuMjA2LTQ2LjYxIDIuNDI0LTIuODc2IDQuNzI2LTUuNjA4IDYuODctOC4wNzhhMjIxLjczNCAyMjEuNzM0IDAgMCAxIDE5LjM1NCA3Ljg4OGMtMC4yMDggMi45Ni0wLjQ3IDYuMTU4LTAuNzQ0IDkuNTItMi4yNTIgMjcuNTY4LTUuMDUyIDYxLjg3NCA5LjkyMiA3Ni44NSA4LjA0MiA4LjA5OCAyMS43MzggMTEuODY4IDQzLjEwNCAxMS44NjggMTIuMjk4IDAgMjUuMDQ0LTEuMjI4IDM2LjI5LTIuMzEyIDMuMTA2LTAuMjk4IDYuMDc0LTAuNTg2IDguODQyLTAuODI2YTE5NS4xNDIgMTk1LjE0MiAwIDAgMSA3LjY2OCAxNy4zMDYgMTU2Ni41IDE1NjYuNSAwIDAgMS00LjIxOCAzLjUwMmMtMjEuOTM0IDE4LjE4OC01MS45NzQgNDMuMDk0LTUxLjk3NCA2Ni4yMTIgMCAyNC45MDIgMzIuNzYyIDUwLjU5OCA1Ni42ODIgNjkuMzZsMS45MTYgMS41MDJhMTg5Ljk4NCAxODkuOTg0IDAgMCAxLTYuMDkyIDE1LjM2NHoiLz48cGF0aCBmaWxsPSIjNzFDQ0UwIiBkPSJNOTMwLjcwOCAzMzMuMTQ0YzAtMjQuNDcyIDE4LjkxMi00NS42MTggNDQuMDc4LTY3LjU1OC03LjU5NCAwLjU5Ni0xNS40ODYgMS4wNDItMjMuMzMgMS4wNDItMTYuNTMgMC00MC4zMDYtMS43MzgtNTUuMzQ2LTE2LjkyNi0xOC40NjYtMTguNDY2LTE3LjkyLTUxLjI3Ni0xNS43ODQtODAuMjY0LTE4Ljc2NCAyMS45NC00MS4zOTggNDUuNzY2LTY3LjU1OCA0NS43NjYtMjYuMjU4IDAtNDguOTQyLTIzLjgyNi02Ny43MDYtNDUuNzY2IDIuMTM0IDI4LjkzOCAyLjY4IDYxLjgtMTUuNzg0IDgwLjM2NC0xNS4xNCAxNS4xNC0zOC44NjYgMTYuOTI2LTU1LjM0NiAxNi45MjYtNy43NDQgMC0xNS42MzYtMC40NDYtMjMuMTMyLTEuMDkyIDI1LjExNiAyMS45NCA0My45OCA0My4wMzYgNDMuOTggNjcuNTA4IDAgMjUuMDY2LTIwLjY1IDQ3LjUwNC00Mi4yNDIgNjYuMDE4IDUuNjU4LTAuMzk4IDExLjQxNi0wLjU5NiAxNy4xMjYtMC41OTYgMjguMzkyIDAgNDcuMzA0IDUuNzA4IDU5LjYxNCAxOC4wMTggMTYuOTI2IDE2LjkyNiAxOS41NTggNDQuODIyIDE3LjQyMiA3NS40NSAxOS45MDQtMjIuNzg0IDQxLjk5NC00MC45NTIgNjYuMDY4LTQwLjk1MiAyMy45NzYgMCA0Ni4wMTQgMTguMTE4IDY1LjkxOCA0MC44NTItMi4yMzQtMzAuNTc4IDAuNDQ2LTU4LjM3NCAxNy40MjItNzUuMyAxMi4zMS0xMi4zNiAzMS4yMjItMTguMDY4IDU5LjYxNC0xOC4wNjggNS43NTggMCAxMS41NjYgMC4xOTggMTcuMjI0IDAuNTk2LTIxLjU4OC0xOC41MTYtNDIuMjM4LTQwLjk1Mi00Mi4yMzgtNjYuMDE4eiBtLTExNy45OSA4OS4yOThjLTQ5LjQ4OCAwLTg5Ljc0Ni00MC4yNTYtODkuNzQ2LTg5Ljc0NiAwLTQ5LjQ4OCA0MC4yNTYtODkuNzQ2IDg5Ljc0Ni04OS43NDYgNDkuNDkgMCA4OS43NDYgNDAuMjU2IDg5Ljc0NiA4OS43NDYgMCA0OS40OS00MC4yNTYgODkuNzQ2LTg5Ljc0NiA4OS43NDZ6Ii8+PHBhdGggZmlsbD0iIzRBNTU1RiIgZD0iTTgxMi43MDIgMjYwLjMzNmMtMzkuOTAyIDAtNzIuMzY2IDMyLjQ2Mi03Mi4zNjYgNzIuMzY0IDAgMzkuOTA0IDMyLjQ2NCA3Mi4zNjggNzIuMzY2IDcyLjM2OCAzOS45MDQgMCA3Mi4zNjgtMzIuNDY0IDcyLjM2OC03Mi4zNjggMC0zOS45LTMyLjQ2NC03Mi4zNjQtNzIuMzY4LTcyLjM2NHogbTAgMTI5Ljg0MmMtMzEuNjkgMC01Ny40NzQtMjUuNzg0LTU3LjQ3NC01Ny40NzYgMC0zMS42OSAyNS43ODQtNTcuNDc0IDU3LjQ3NC01Ny40NzQgMzEuNjkyIDAgNTcuNDc2IDI1Ljc4NCA1Ny40NzYgNTcuNDc0IDAgMzEuNjkyLTI1Ljc4MiA1Ny40NzYtNTcuNDc2IDU3LjQ3NnoiLz48cGF0aCBmaWxsPSIjNEE1NTVGIiBkPSJNODEyLjcwMiAyNjAuMzM2Yy0zOS45MDIgMC03Mi4zNjYgMzIuNDYyLTcyLjM2NiA3Mi4zNjQgMCAzOS45MDQgMzIuNDY0IDcyLjM2OCA3Mi4zNjYgNzIuMzY4IDM5LjkwNCAwIDcyLjM2OC0zMi40NjQgNzIuMzY4LTcyLjM2OCAwLTM5LjktMzIuNDY0LTcyLjM2NC03Mi4zNjgtNzIuMzY0eiBtMCAxMjkuODQyYy0zMS42OSAwLTU3LjQ3NC0yNS43ODQtNTcuNDc0LTU3LjQ3NiAwLTMxLjY5IDI1Ljc4NC01Ny40NzQgNTcuNDc0LTU3LjQ3NCAzMS42OTIgMCA1Ny40NzYgMjUuNzg0IDU3LjQ3NiA1Ny40NzQgMCAzMS42OTItMjUuNzgyIDU3LjQ3Ni01Ny40NzYgNTcuNDc2ek02MzYuNTQgOTUuMjFsOC43OTQgMTIuMDE2YTI4NC44OSAyODQuODkgMCAwIDEgMTEuOTIyLTguMjZsLTguMTY0LTEyLjQ1NGEzMDAuMDkyIDMwMC4wOTIgMCAwIDAtMTIuNTUyIDguNjk4eiBtMjUuNTQ4LTE2LjcyOGw3LjUgMTIuODY2YzQuMTQ0LTIuNDE2IDguNDItNC43NiAxMi43MDgtNi45NjhsLTYuODE2LTEzLjIzOGEyOTAuNDE2IDI5MC40MTYgMCAwIDAtMTMuMzkyIDcuMzR6IG01NS42MDgtMjUuMDI0bDQuNjU0IDE0LjE0NmEyNzguNTcyIDI3OC41NzIgMCAwIDEgMTMuODc0LTQuMTY2bC0zLjkwOC0xNC4zNjhjLTQuODggMS4zMjQtOS44IDIuOC0xNC42MiA0LjM4OHogbS0yOC40NTggMTEuMDU0bDYuMTEyIDEzLjU3OGEyODAuNjk0IDI4MC42OTQgMCAwIDEgMTMuMzY2LTUuNjAybC01LjQtMTMuODc4YTI5OC41MjggMjk4LjUyOCAwIDAgMC0xNC4wNzggNS45MDJ6TTU0MS44IDIxMi45NWwxMy42MzIgNS45OTZhMjc1LjMxMiAyNzUuMzEyIDAgMCAxIDYuMTk2LTEzLjEyMmwtMTMuMjk2LTYuNzA4YTI5MS42MzIgMjkxLjYzMiAwIDAgMC02LjUzMiAxMy44MzR6IG00OS41MjQtNzYuNzg0bDExLjA5IDkuOTM4YTI4My42NDggMjgzLjY0OCAwIDAgMSA5Ljk1Ni0xMC41NTRsLTEwLjU2Mi0xMC40OTRhMjk5LjA4OCAyOTkuMDg4IDAgMCAwLTEwLjQ4NCAxMS4xMXogbS0zNS43NCA0OS40ODZsMTIuOTE4IDcuNDAyYTI4MC4zNjQgMjgwLjM2NCAwIDAgMSA3LjU0Mi0xMi4zOTJsLTEyLjUxNi04LjA3YTI5NC4zNTIgMjk0LjM1MiAwIDAgMC03Ljk0NCAxMy4wNnogbTE2LjU3NC0yNS42ODZsMTIuMDcgOC43MmEyODAuMDY0IDI4MC4wNjQgMCAwIDEgOC43OTgtMTEuNTMybC0xMS41OTQtOS4zNGEyODguMDYgMjg4LjA2IDAgMCAwLTkuMjc0IDEyLjE1MnogbTQwLjcxMi00NS40NjJsOS45OTYgMTEuMDM4YzMuNTU2LTMuMjE4IDcuMjU0LTYuNCAxMC45OTgtOS40NTJsLTkuNDA4LTExLjU0MmEyOTYuNTggMjk2LjU4IDAgMCAwLTExLjU4NiA5Ljk1NnpNODY1LjQ2IDU5LjY0NmEyODAuMDQgMjgwLjA0IDAgMCAxIDE0LjEyNCAzLjMwOGwzLjc3Ni0xNC40MDZhMjkzLjQwMiAyOTMuNDAyIDAgMCAwLTE0Ljg4NC0zLjQ4MmwtMy4wMTYgMTQuNTh6IG0yOC4wNiA3LjM0NmM0LjU5IDEuNDYyIDkuMiAzLjA2NCAxMy42OTggNC43NjJsNS4yNi0xMy45MzJhMjkwLjQ4NCAyOTAuNDg0IDAgMCAwLTE0LjQ0LTUuMDJsLTQuNTE4IDE0LjE5eiBtMjcuMTIgMTAuMjQyYzQuNDA2IDEuOTM0IDguODIgNC4wMTQgMTMuMTE2IDYuMTc4bDYuNy0xMy4zMDJhMjk0LjE1MiAyOTQuMTUyIDAgMCAwLTEzLjgzLTYuNTEybC01Ljk4NiAxMy42MzZ6IG0zMy4yOCAwLjExbC03LjM4OCAxMi45MjhhMjc4LjM5NCAyNzguMzk0IDAgMCAxIDEyLjM5NCA3LjUybDguMDU2LTEyLjUyYTI4NC44MTQgMjg0LjgxNCAwIDAgMC0xMy4wNjItNy45Mjh6TTc0Ny4xNDYgNDUuNDU0bDMuMTQyIDE0LjU1NmEyODMuOSAyODMuOSAwIDAgMSAxNC4yMy0yLjY4NmwtMi4zOC0xNC42OThjLTUuMDIyIDAuODE0LTEwLjA2MiAxLjc2NC0xNC45OTIgMi44Mjh6IG0zMC4xMzYtNC44NjRsMS42IDE0LjgwNGM0Ljc2LTAuNTE0IDkuNjIyLTAuOTA4IDE0LjQ0Ni0xLjE3NmwtMC44Mi0xNC44NjhjLTUuMDgyIDAuMjgtMTAuMjA2IDAuNjk2LTE1LjIyNiAxLjI0eiBtNjAuOTk0LTAuMTY0bC0xLjQ5MiAxNC44MTggMS44MjQgMC4xODhjNC4yMjIgMC40NTYgOC40MSAxLjAwNCAxMi41NjQgMS42NDRsMi4yNjgtMTQuNzE2YTI5NS4xODQgMjk1LjE4NCAwIDAgMC0xMy4yMzQtMS43M2wtMS45My0wLjIwNHogbS0zMC40OC0xLjUxdjE0Ljg5MmgwLjY5OGM0LjU4NCAwIDkuMjMyIDAuMTE2IDEzLjgyIDAuMzQybDAuNzM2LTE0Ljg3MmMtNC44MzQtMC4yNC05LjcyOC0wLjM2Mi0xNC41NTYtMC4zNjJoLTAuNjk4ek0xMDUuMDIyIDc1NS43MjZ2MTA1LjgwMmgzMTIuMTAydi0xMDUuODAySDEwNS4wMjJ6IG0yOTcuMjEyIDkwLjkxSDExOS45MTR2LTc2LjAyaDI4Mi4zMnY3Ni4wMnoiLz48cGF0aCBmaWxsPSIjNEE1NTVGIiBkPSJNMTA1LjAyMiA2NjQuODEydjEwNS44MDZoMzEyLjEwMnYtMTA1LjgwNkgxMDUuMDIyeiBtMjk3LjIxMiA5MC45MTRIMTE5LjkxNHYtNzYuMDIyaDI4Mi4zMnY3Ni4wMjJ6TTQ4NS45NDYgNzU1LjcyNnYxMDUuODAyaDMxMi4xMDJ2LTEwNS44MDJINDg1Ljk0NnogbTI5Ny4yMTIgOTAuOTFoLTI4Mi4zMnYtNzYuMDJoMjgyLjMydjc2LjAyeiIvPjxwYXRoIGZpbGw9IiM0QTU1NUYiIGQ9Ik00ODUuOTQ2IDY2NC44MTJ2MTA1LjgwNmgzMTIuMTAydi0xMDUuODA2SDQ4NS45NDZ6IG0yOTcuMjEyIDkwLjkxNGgtMjgyLjMydi03Ni4wMjJoMjgyLjMydjc2LjAyMnpNMTA1LjAyMiA1NzMuOXYxMDUuODAyaDMxMi4xMDJWNTczLjlIMTA1LjAyMnogbTI5Ny4yMTIgOTAuOTEySDExOS45MTR2LTc2LjAyaDI4Mi4zMnY3Ni4wMnpNNTc5LjkwNiAyMjAuODA2bC00MS4wNjQgMTQuODg2LTE2LjQxMi00MS4wODQtMTMuODMgNS41MiAyMS43NTggNTQuNDc4IDU0LjYyNC0xOS44eiIvPjxwYXRoIGZpbGw9IiM0QTU1NUYiIGQ9Ik0xNDMuNzY2IDYwNC4yNDh2NDUuMTA4aDQ1LjEwOHYtNDUuMTA4SDE0My43NjZ6IG0zMC4yMTYgMzAuMjE2aC0xNS4zMjZ2LTE1LjMyNmgxNS4zMjZ2MTUuMzI2ek0xNDMuNzY2IDY5NS4xNnY0NS4xMWg0NS4xMDhWNjk1LjE2SDE0My43NjZ6IG0zMC4yMTYgMzAuMjE4aC0xNS4zMjZ2LTE1LjMyOGgxNS4zMjZ2MTUuMzI4ek0xNDMuNzY2IDc4Ni4wNzR2NDUuMTA4aDQ1LjEwOHYtNDUuMTA4SDE0My43NjZ6IG0zMC4yMTYgMzAuMjE2aC0xNS4zMjZ2LTE1LjMyNmgxNS4zMjZ2MTUuMzI2ek01MjMuMjE2IDY5NS4xNnY0NS4xMWg0NS4xMVY2OTUuMTZoLTQ1LjExeiBtMzAuMjE4IDMwLjIxOGgtMTUuMzI4di0xNS4zMjhoMTUuMzI4djE1LjMyOHpNNTIzLjIxNiA3ODYuMDc0djQ1LjEwOGg0NS4xMXYtNDUuMTA4aC00NS4xMXogbTMwLjIxOCAzMC4yMTZoLTE1LjMyOHYtMTUuMzI2aDE1LjMyOHYxNS4zMjZ6TTI2My4yMDQgNjE5LjM1OGgxNC4wNjR2MTQuODkyaC0xNC4wNjR6TTIyOS42MyA2MTkuMzU4aDE0LjA2MnYxNC44OTJoLTE0LjA2MnpNMzAxLjA4MiA2MTkuMzU4aDY4LjQ3djE0Ljg5MmgtNjguNDd6TTI2My4yMDQgNzEwLjI2OGgxNC4wNjR2MTQuODkyaC0xNC4wNjR6TTIyOS42MyA3MTAuMjY4aDE0LjA2MnYxNC44OTJoLTE0LjA2MnpNMzAxLjA4MiA3MTAuMjY4aDY4LjQ3djE0Ljg5MmgtNjguNDd6TTI2My4yMDQgODAxLjE4MmgxNC4wNjR2MTQuODkyaC0xNC4wNjR6TTIyOS42MyA4MDEuMTgyaDE0LjA2MnYxNC44OTJoLTE0LjA2MnpNMzAxLjA4MiA4MDEuMTgyaDY4LjQ3djE0Ljg5MmgtNjguNDd6TTY0Mi45MzggNzEwLjI2OGgxNC4wNjJ2MTQuODkyaC0xNC4wNjJ6TTYwOS4zNjIgNzEwLjI2OGgxNC4wNjR2MTQuODkyaC0xNC4wNjR6TTY4MC44MTYgNzEwLjI2OGg2OC40Njh2MTQuODkyaC02OC40Njh6TTY0Mi45MzggODAxLjE4MmgxNC4wNjJ2MTQuODkyaC0xNC4wNjJ6TTYwOS4zNjIgODAxLjE4MmgxNC4wNjR2MTQuODkyaC0xNC4wNjR6TTY4MC44MTYgODAxLjE4Mmg2OC40Njh2MTQuODkyaC02OC40Njh6Ii8+PC9zdmc+;" vertex="1" parent="1">
          <mxGeometry x="372" y="430" width="50" height="46.25" as="geometry" />
        </mxCell>
        <mxCell id="Jis6cY73mUHlKtGD7zfd-38" style="edgeStyle=orthogonalEdgeStyle;rounded=0;orthogonalLoop=1;jettySize=auto;html=1;sketch=1;curveFitting=1;jiggle=2;fillColor=#ffe6cc;strokeColor=#D9B96D;exitX=0;exitY=0;exitDx=55;exitDy=120;exitPerimeter=0;" edge="1" parent="1" source="Jis6cY73mUHlKtGD7zfd-48" target="Jis6cY73mUHlKtGD7zfd-17">
          <mxGeometry relative="1" as="geometry">
            <mxPoint x="325" y="400" as="sourcePoint" />
            <Array as="points">
              <mxPoint x="357" y="460" />
            </Array>
          </mxGeometry>
        </mxCell>
        <mxCell id="Jis6cY73mUHlKtGD7zfd-37" style="edgeStyle=orthogonalEdgeStyle;rounded=0;orthogonalLoop=1;jettySize=auto;html=1;sketch=1;curveFitting=1;jiggle=2;fillColor=#ffe6cc;strokeColor=#D9B96D;exitX=0;exitY=0;exitDx=55;exitDy=120;exitPerimeter=0;" edge="1" parent="1" source="Jis6cY73mUHlKtGD7zfd-26" target="Jis6cY73mUHlKtGD7zfd-17">
          <mxGeometry relative="1" as="geometry">
            <Array as="points">
              <mxPoint x="305" y="460" />
            </Array>
          </mxGeometry>
        </mxCell>
        <mxCell id="Jis6cY73mUHlKtGD7zfd-36" value="..." style="text;html=1;align=center;verticalAlign=middle;whiteSpace=wrap;rounded=0;fontFamily=Comic Sans MS;strokeWidth=1;fontSize=19;fontStyle=1;fontColor=#D9B96D;" vertex="1" parent="1">
          <mxGeometry x="363" y="300" width="30" height="20" as="geometry" />
        </mxCell>
        <mxCell id="Jis6cY73mUHlKtGD7zfd-53" value="LLM&lt;div&gt;forward&lt;/div&gt;" style="text;html=1;align=center;verticalAlign=middle;whiteSpace=wrap;rounded=0;fontFamily=Comic Sans MS;fontSize=13;fontColor=#D9B96D;fontStyle=1;" vertex="1" parent="1">
          <mxGeometry x="500" y="295" width="60" height="30" as="geometry" />
        </mxCell>
        <mxCell id="Jis6cY73mUHlKtGD7zfd-51" style="edgeStyle=orthogonalEdgeStyle;rounded=0;orthogonalLoop=1;jettySize=auto;html=1;sketch=1;jiggle=2;curveFitting=1;strokeColor=#D9B96D;align=center;verticalAlign=middle;fontFamily=Helvetica;fontSize=11;fontColor=default;labelBackgroundColor=default;endArrow=classic;fillColor=#ffe6cc;" edge="1" parent="1" source="Jis6cY73mUHlKtGD7zfd-49" target="Jis6cY73mUHlKtGD7zfd-17">
          <mxGeometry relative="1" as="geometry">
            <Array as="points">
              <mxPoint x="455" y="460" />
            </Array>
          </mxGeometry>
        </mxCell>
        <mxCell id="Jis6cY73mUHlKtGD7zfd-54" value="downstream task" style="text;html=1;align=center;verticalAlign=middle;whiteSpace=wrap;rounded=0;fontFamily=Comic Sans MS;strokeWidth=1;fontSize=13;fontColor=#D9B96D;fontStyle=1;" vertex="1" parent="1">
          <mxGeometry x="318" y="470" width="128" height="30" as="geometry" />
        </mxCell>
        <mxCell id="Jis6cY73mUHlKtGD7zfd-55" value="RAG：Is there an optimal layer for each retrieval?&amp;nbsp;" style="text;html=1;align=center;verticalAlign=middle;whiteSpace=wrap;rounded=1;fontFamily=Comic Sans MS;fillColor=#f8cecc;strokeColor=#b85450;sketch=1;curveFitting=1;jiggle=2;opacity=20;fontStyle=1;fontSize=13;fontColor=light-dark(#B85450,#EDEDED);labelBackgroundColor=none;" vertex="1" parent="1">
          <mxGeometry x="210" y="520" width="350" height="24.24" as="geometry" />
        </mxCell>
        <mxCell id="Jis6cY73mUHlKtGD7zfd-56" value="hidden state" style="text;html=1;align=center;verticalAlign=middle;whiteSpace=wrap;rounded=0;fontFamily=Comic Sans MS;fontSize=13;fontColor=#D9B96D;fontStyle=1;" vertex="1" parent="1">
          <mxGeometry x="358" y="408" width="88" height="30" as="geometry" />
        </mxCell>
        <mxCell id="Jis6cY73mUHlKtGD7zfd-69" style="edgeStyle=orthogonalEdgeStyle;rounded=0;orthogonalLoop=1;jettySize=auto;html=1;sketch=1;curveFitting=1;jiggle=2;fillColor=#ffe6cc;strokeColor=#D9B96D;exitX=0;exitY=0;exitDx=55;exitDy=120;exitPerimeter=0;" edge="1" parent="1" target="Jis6cY73mUHlKtGD7zfd-17">
          <mxGeometry relative="1" as="geometry">
            <mxPoint x="502" y="415" as="sourcePoint" />
            <mxPoint x="435" y="460" as="targetPoint" />
            <Array as="points">
              <mxPoint x="502" y="460" />
            </Array>
          </mxGeometry>
        </mxCell>
        <mxCell id="Jis6cY73mUHlKtGD7zfd-74" value="&lt;font style=&quot;color: rgb(215, 155, 0);&quot;&gt;Static&lt;/font&gt; &lt;font style=&quot;color: rgb(215, 155, 0);&quot;&gt;analysis &lt;/font&gt;based layer selection" style="text;html=1;align=center;verticalAlign=middle;whiteSpace=wrap;rounded=0;fontFamily=Comic Sans MS;fontSize=13;fontColor=#D9B96D;fontStyle=1;" vertex="1" parent="1">
          <mxGeometry x="202" y="440" width="110" height="50" as="geometry" />
        </mxCell>
        <mxCell id="Jis6cY73mUHlKtGD7zfd-75" value="" style="group" vertex="1" connectable="0" parent="1">
          <mxGeometry x="440" y="283.1801948466054" width="70" height="131.8198051533946" as="geometry" />
        </mxCell>
        <mxCell id="Jis6cY73mUHlKtGD7zfd-50" value="" style="shape=cube;whiteSpace=wrap;html=1;boundedLbl=1;backgroundOutline=1;darkOpacity=0.05;darkOpacity2=0.1;size=40;flipV=0;flipH=0;sketch=1;curveFitting=1;jiggle=2;fillColor=#fff2cc;strokeColor=#d6b656;" vertex="1" parent="Jis6cY73mUHlKtGD7zfd-75">
          <mxGeometry x="5" y="11.819805153394611" width="70" height="120" as="geometry" />
        </mxCell>
        <mxCell id="Jis6cY73mUHlKtGD7zfd-35" value="layer n" style="text;html=1;align=center;verticalAlign=middle;whiteSpace=wrap;rounded=0;fontFamily=Comic Sans MS;strokeWidth=1;fontSize=12;fontColor=#D9B96D;fontStyle=1;rotation=45;" vertex="1" parent="Jis6cY73mUHlKtGD7zfd-75">
          <mxGeometry x="9" y="16.81980515339461" width="60" height="30" as="geometry" />
        </mxCell>
        <mxCell id="Jis6cY73mUHlKtGD7zfd-76" value="" style="group" vertex="1" connectable="0" parent="1">
          <mxGeometry x="394.6446609406726" y="279.6446609406726" width="70.71067811865476" height="135.35533905932738" as="geometry" />
        </mxCell>
        <mxCell id="Jis6cY73mUHlKtGD7zfd-49" value="" style="shape=cube;whiteSpace=wrap;html=1;boundedLbl=1;backgroundOutline=1;darkOpacity=0.05;darkOpacity2=0.1;size=40;flipV=0;flipH=0;sketch=1;curveFitting=1;jiggle=2;fillColor=#fff2cc;strokeColor=#d6b656;" vertex="1" parent="Jis6cY73mUHlKtGD7zfd-76">
          <mxGeometry x="0.3553390593273775" y="15.355339059327378" width="70" height="120" as="geometry" />
        </mxCell>
        <mxCell id="Jis6cY73mUHlKtGD7zfd-34" value="layer n-1" style="text;html=1;align=center;verticalAlign=middle;whiteSpace=wrap;rounded=0;fontFamily=Comic Sans MS;strokeWidth=1;fontSize=12;fontColor=#D9B96D;fontStyle=1;rotation=45;" vertex="1" parent="Jis6cY73mUHlKtGD7zfd-76">
          <mxGeometry x="0.3553390593273775" y="20.355339059327378" width="70" height="30" as="geometry" />
        </mxCell>
        <mxCell id="Jis6cY73mUHlKtGD7zfd-77" value="" style="group" vertex="1" connectable="0" parent="1">
          <mxGeometry x="302" y="283.1801948466054" width="70" height="131.8198051533946" as="geometry" />
        </mxCell>
        <mxCell id="Jis6cY73mUHlKtGD7zfd-48" value="" style="shape=cube;whiteSpace=wrap;html=1;boundedLbl=1;backgroundOutline=1;darkOpacity=0.05;darkOpacity2=0.1;size=40;flipV=0;flipH=0;sketch=1;curveFitting=1;jiggle=2;fillColor=#fff2cc;strokeColor=#d6b656;" vertex="1" parent="Jis6cY73mUHlKtGD7zfd-77">
          <mxGeometry y="11.819805153394611" width="70" height="120" as="geometry" />
        </mxCell>
        <mxCell id="Jis6cY73mUHlKtGD7zfd-33" value="layer 2" style="text;html=1;align=center;verticalAlign=middle;whiteSpace=wrap;rounded=0;fontFamily=Comic Sans MS;strokeWidth=1;fontSize=12;fontColor=#D9B96D;fontStyle=1;rotation=45;" vertex="1" parent="Jis6cY73mUHlKtGD7zfd-77">
          <mxGeometry x="5" y="16.81980515339461" width="60" height="30" as="geometry" />
        </mxCell>
        <mxCell id="Jis6cY73mUHlKtGD7zfd-78" value="" style="group" vertex="1" connectable="0" parent="1">
          <mxGeometry x="250" y="283.1801948466054" width="70" height="131.8198051533946" as="geometry" />
        </mxCell>
        <mxCell id="Jis6cY73mUHlKtGD7zfd-26" value="" style="shape=cube;whiteSpace=wrap;html=1;boundedLbl=1;backgroundOutline=1;darkOpacity=0.05;darkOpacity2=0.1;size=40;flipV=0;flipH=0;sketch=1;curveFitting=1;jiggle=2;fillColor=#fff2cc;strokeColor=#d6b656;" vertex="1" parent="Jis6cY73mUHlKtGD7zfd-78">
          <mxGeometry y="11.819805153394611" width="70" height="120" as="geometry" />
        </mxCell>
        <mxCell id="Jis6cY73mUHlKtGD7zfd-32" value="layer 1" style="text;html=1;align=center;verticalAlign=middle;whiteSpace=wrap;rounded=0;fontFamily=Comic Sans MS;strokeWidth=1;fontSize=12;fontColor=#D9B96D;fontStyle=1;rotation=45;" vertex="1" parent="Jis6cY73mUHlKtGD7zfd-78">
          <mxGeometry x="5" y="16.81980515339461" width="60" height="30" as="geometry" />
        </mxCell>
      </root>
    </mxGraphModel>
  </diagram>
</mxfile>
